<?xml version="1.0" encoding="utf-8"?><svg xmlns="http://www.w3.org/2000/svg" xmlns:xlink="http://www.w3.org/1999/xlink"><symbol viewBox="0 0 12 8" id="arrow-down" xmlns="http://www.w3.org/2000/svg"><path d="M2.12 1.29L6 5.17l3.88-3.88a.996.996 0 111.41 1.41L6.7 7.29a.996.996 0 01-1.41 0L.7 2.7a.996.996 0 010-1.41c.39-.38 1.03-.39 1.42 0z"/></symbol><symbol viewBox="0 0 16 16" id="arrow-left" xmlns="http://www.w3.org/2000/svg"><path d="M15 7H3.83l4.88-4.88c.39-.39.39-1.03 0-1.42A.996.996 0 007.3.7L.71 7.29a.996.996 0 000 1.41l6.59 6.59a.996.996 0 101.41-1.41L3.83 9H15c.55 0 1-.45 1-1s-.45-1-1-1z"/></symbol><symbol viewBox="0 0 20 16" id="envelope" xmlns="http://www.w3.org/2000/svg"><path fill-rule="evenodd" clip-rule="evenodd" d="M2 0h16c1.1 0 2 .9 2 2v12c0 1.1-.9 2-2 2H2c-1.1 0-2-.9-2-2L.01 2C.01.9.9 0 2 0zm8.53 8.67l7.07-4.42a.85.85 0 10-.9-1.44L10 7 3.3 2.81a.85.85 0 10-.9 1.44l7.07 4.42c.32.2.74.2 1.06 0z"/></symbol><symbol viewBox="0 0 11 14" id="play" xmlns="http://www.w3.org/2000/svg"><path d="M0 1.82v10.36c0 .79.87 1.27 1.54.84l8.14-5.18a1 1 0 000-1.69L1.54.98A.998.998 0 000 1.82z"/></symbol></svg>